<svg xmlns="http://www.w3.org/2000/svg" viewBox="0 0 600 220" role="img" aria-labelledby="t">
  <title id="t">Outback Ranger Co.</title>
  <rect width="100%" height="100%" fill="none"/>
  <g fill="#2b241c">
    <path d="M40 190h520v10H40z"/>
    <circle cx="300" cy="60" r="12"/>
    <path d="M285 70l50 9-10 20-60-7z"/>
    <path d="M160 165c-10 0-18-8-18-18s8-18 18-18h18l10-24c3-7 9-12 16-14l78-15c8-2 16 2 19 9l12 24h14c18 0 34 16 34 34v26h-17l-20-22-22 22h-86l-12-20-12 20z"/>
    <text x="300" y="205" text-anchor="middle" font-family="Georgia, 'Times New Roman', serif" font-size="28">OUTBACK RANGER CO.</text>
  </g>
</svg>
